<svg xmlns="http://www.w3.org/2000/svg" viewBox="0 0 597.38 312.66">
	<defs>
		<style>
			.cls-1{fill:#c9d1d3;}.cls-2{fill:#465881;}.cls-3{fill:#303c56;}.cls-4{fill:#1b2a49;}
		</style>
	</defs>
	<title>
		mountains layout
	</title>
	<g id="Layer_2" data-name="Layer 2">
		<g id="mountains1">
			<path class="cls-1" d="M0,133.24c.26.6.53,1.17.81,1.74s.66,1.32,1,2C27,183.1,121.69,188.84,213.36,185c.64,0,1.26-.05,1.88-.08,30-1.28,59.59-3.56,86.29-5.76L315.86,178l1.29-.12c6.81-.58,32.84-2.92,66.5-7.11,15.11-1.88,31.74-4.12,48.86-6.75,3.12-.47,6.25-1,9.4-1.46,3.73-.59,7.46-1.22,11.2-1.84,71.25-12,143.62-30.41,144.27-55.65.38-14.91-29.63-47.36-56.3-51.77-1.53-.26-3.36-.47-5.5-.79a72.64,72.64,0,0,1-14.29-3.59c-19.33-7-23.64-17.35-30.44-15.32-8.37,2.51-4.06,18.92-19,37.19-4.78,5.85-8.65,10.57-14.46,10.95-11.39.72-14.87-16.22-28.91-17.51-4.11-.38-4.6,1-25.12,8.75C392,77.3,386.26,79.45,385.1,79.55c-26.47,2.37-50.56-65.72-63.91-62-5.76,1.61-4.25,15.08-9.89,16C301.74,35.23,288.18-1.68,282.38.06c-2.66.8.12,8.61-4.57,12.39-6.16,5-16-4.45-29.67-2.91-9.82,1.11-16.44,7.55-29.67,20.42-14.63,14.22-19.52,25-29.68,24.79-3,0-2.76-1-9.9-2.19-4.64-.76-13.18-2.19-20.53-.72-12.91,2.57-11.87,12-23.59,14.58-10,2.19-13.25-4.08-25.11-2.19C99.85,65.8,100,70.41,91.41,73c-21.12,6.3-36-17.17-57.83-10.94-3.94,1.13-8.34,3.28-16,3.65C8.76,66.12,4.9,63.74,1.84,64Z" />
			<path class="cls-2" d="M190.74,106.94c2.4-2.8,9.16-9.77,16.33-16.47,11-10.29,14.48-12,16.33-12.72,9-3.74,17.25-1.91,22.46-.75,21.24,4.72,35,21,35,21,5.5,6.47,9.85,14.3,15.65,13.48,3.44-.49,4.8-3.65,8.17-3,2.65.51,4.64,3.34,8.51,9,3.75,5.48,4.08,7.23,6.12,7.86,3.38,1,5.17-3,8.85-3.74,9.09-1.93,13.27,19.45,26.87,22.07,7.75,1.5,16.63-3.45,25.86-8.6,5-2.78,4.18-3.05,6.81-4.12,11.62-4.71,17.87,4.49,31.64,4.12,10.07-.28,9.18-5.27,24.5-8.23,14.53-2.82,15.08,1.73,23.81-1.13,18.37-6,23.72-28.66,34-26.19,3.41.82,2.58,3.24,7.82,5.61,9.67,4.37,20.32-.32,23.82-1.87,7.48-3.3,6.58-5.5,12.25-6.73,7-1.53,9,1.72,17-.38,1.72-.45,4.44-1.34,5.47,0,.64.84.25,2,0,4.49v18c0,8.21-.12,15.62-.2,23.58,0,6.18-.15,20.1,0,36.29.17,17.71.44,17.09.2,18.34-4.64,24.15-60.77,31.13-69.78,32.18-79.12,9.17-145.82,5.37-172.16,4.11-120.41-5.75-151.26,5.5-163.65-19.08C146.22,181.67,178.65,121,190.74,106.94Z" />
			<rect class="cls-2" x="566.86" y="95.12" width="30.52" height="23.34" />
			<path class="cls-3" d="M28.4,93.84c2.68-4.12,10.57-3,13.49-2.53,5.84.86,6.43,3,10,2.53,2-.26,4.35-1.28,12.25-11,7-8.59,7.56-10.66,12.25-15.15,5.37-5.15,8.06-7.72,11.48-7.58,4.72.2,5.81,5.1,17.61,18.52,6.76,7.71,10.44,10.7,15.31,11.79,4.12.93,4.47-.55,8.42,0,11.24,1.57,12.28,14.08,23.73,17.68,1.24.39,6.7,0,17.61-.84,0,0,3.67-.28,18.37-1.68.09,1.89.54,5.64,3.06,8.41,2.19,2.42,5.22,3.3,10.72,3.37,10.29.15,12.87-2.76,17.61-2.52,15.68.76,22.36,34.33,34.44,32.83,4.33-.54,5.51-5.09,9.19-4.21,4.76,1.14,5,9.31,9.95,21.05.8,1.88,11.92,27.68,23.73,26.94,3.56-.22,4.21-2.66,8.43-2.53,6.26.21,7.7,5.68,13.77,8.42,9.17,4.14,20-2,26.8-5.89,9.5-5.41,7.74-8.12,13.78-10.1,14.38-4.72,32.18,8.12,32.92,8.42,1.75,3.12,4.35,6.58,7.65,6.73,3.69.17,4.46-4,9.19-5.89,4.49-1.83,6.23.91,19.9,3.37,8.21,1.47,10.92,1.08,12.25.84,5.17-1,5.88-2.93,9.95-3.37,6.37-.69,8.08,3.76,14.55,5.05,9.16,1.83,17.68-4.7,21.43-7.58,8.75-6.7,8.09-12.06,15.31-14.31,4.86-1.51,6.5.49,13-1.68,3.06-1,7.62-2.54,10.71-6.74,3.92-5.31.83-8.62,3.83-15.15,4.18-9.11,12-6.59,17.61-16.84,3-5.55,1.74-8.11,5.36-11.79,4.27-4.35,11.38-6.15,13.86-3.36,1.59,1.77.72,4.76,0,9.26-1.63,10.22,0,20.76,0,31.15v19.36c-3.07,26-92.24,30.09-181.85,51.92-38.25,9.31-37.63,12.38-122.15,35.17-47.75,12.88-67.54,17.19-93.56,19.08-2.86.21-69.57,4.46-113-22.45-8-4.95-26.6-16.84-29-35.54-.26-2-.16-2.77,0-9.36.33-13.84,0-27.69,0-41.53V114.79c0-2.12,0-4.24,0-6.36C28.17,97.69,27,96,28.4,93.84Z" />
			<rect class="cls-3" y="91.52" width="30.52" height="134.74" />
			<rect class="cls-3" x="566.86" y="118.46" width="30.52" height="52.69" />
			<rect class="cls-4" y="224.85" width="30.52" height="75.52" />
			<rect class="cls-4" x="278.15" y="21.14" width="13.38" height="569.68" transform="translate(-21.14 590.81) rotate(-90)" />
			<rect class="cls-4" x="566.86" y="171.15" width="30.52" height="141.52" />
			<path class="cls-4" d="M28.59,224.8c1.94-1.47,6.26,2,11.43,6.36,20.39,17.26,22,21.67,30.62,25.45,5.83,2.54,10.74,3,19,3.74,9.52.86,14.35-.16,23.82-.75,16.44-1,26.24-1.65,37.42,1.5,12.7,3.56,12.14,7.74,29.6,13.09,14.48,4.44,20.64,3.34,23.48,2.62,4-1,5.72-2.35,18.71-12,9.17-6.79,18.66-13.77,29.6-20.58,12.1-7.53,14.46-7.69,16.33-7.49,6.75.73,9,6.27,21.1,9.73a36.06,36.06,0,0,0,8.5,1.5c1.53.07,8.34.36,13.61-2.24,11.32-5.6,8.67-21.14,20.08-26.2,2.25-1,5.72-2.54,9.18-1.12,3,1.24,4.06,3.93,8.17,4.86,1.31.3,3.16.72,4.42-.37,2-1.71.32-5.18,1.7-6.73,2.17-2.44,9,3,19.06,6.73,3.4,1.27,18,6.74,22.11,1.12,1.79-2.44.64-5.66,3.07-7.48,2.12-1.6,4.82-.47,7.14,0,5.15,1,9.22-1.06,17.35-5.24,13.05-6.71,11.79-12.23,21.78-15.71,2.88-1,10.64-3.72,17.69,0,6.21,3.27,5.48,8.16,10.89,11.22,9,5.1,21.24-2.68,25.85-5.61,3.47-2.21,14-8.91,19.4-22.08,2.18-5.34,3.31-11.28,5.44-11.22,1.66,0,2,3.66,5.79,8.6,2.06,2.69,5.32,6.92,8.16,6.36,3.69-.72,2.4-8.66,7.49-13.09,6.58-5.74,19.77-2,21.46,3.36.2.66.07.81,0,5.24v8.24c0,15.48,0,17.51,0,22.07,0,10.24-.13,9.23-.2,21-.06,11.08,0,19.76,0,24.69.08,15.62.12,23.43.2,24.32,1,11,3,18.93,0,20.92-.8.53-1.32.23-5.13,0-3.06-.17-6.13,0-9.19,0H47.5c-4.08,0-8.22-.71-12.25,0-3,.53-5.62,1.42-6.66,0-.64-.86-.19-1.94,0-4.83A54.88,54.88,0,0,0,28.4,288c-.18-4.61,0-7.84.19-11.6.12-2.93,0-2.27,0-19.09,0-22.21.12-20.82,0-22.07C28,229.07,27.14,225.91,28.59,224.8Z" />
		</g>
	</g>
</svg>
